<svg xmlns="http://www.w3.org/2000/svg" viewBox="0 0 280 240" role="img" aria-label="Lily at aid station">
  <title>Lily — at the aid station</title>
  <line x1="0" y1="230" x2="280" y2="230" stroke="#3A3F45" stroke-width="1" opacity="0.2"/>

  <!-- Bunting -->
  <path d="M 20 80 Q 140 55 260 80" fill="none" stroke="#3A3F45" stroke-width="0.5" opacity="0.5"/>
  <path d="M 55 72 L 61 72 L 58 80 Z" fill="#5C7A3E"/>
  <path d="M 95 66 L 101 66 L 98 74 Z" fill="#D9622C"/>
  <path d="M 140 64 L 146 64 L 143 72 Z" fill="#E8B547"/>
  <path d="M 190 66 L 196 66 L 193 74 Z" fill="#5C7A3E"/>
  <path d="M 225 72 L 231 72 L 228 80 Z" fill="#D9622C"/>

  <!-- Aid station table with sign -->
  <g transform="translate(155 95)">
    <rect x="55" y="-30" width="3" height="30" fill="#3A3F45"/>
    <rect x="25" y="-42" width="70" height="20" rx="2" fill="#D9622C"/>
    <text x="60" y="-28" text-anchor="middle" font-family="Oswald, Anton, Impact, sans-serif" font-weight="500" font-size="11" fill="#F2EDE0">AID 3</text>
    <rect x="0" y="60" width="130" height="8" fill="#3A3F45"/>
    <rect x="6" y="68" width="3" height="40" fill="#3A3F45"/>
    <rect x="121" y="68" width="3" height="40" fill="#3A3F45"/>
    <path d="M 14 48 L 24 48 L 22 60 L 16 60 Z" fill="#F2EDE0" stroke="#3A3F45" stroke-width="0.5"/>
    <path d="M 30 48 L 40 48 L 38 60 L 32 60 Z" fill="#F2EDE0" stroke="#3A3F45" stroke-width="0.5"/>
    <path d="M 46 48 L 56 48 L 54 60 L 48 60 Z" fill="#F2EDE0" stroke="#3A3F45" stroke-width="0.5"/>
    <g transform="translate(72 38)">
      <rect x="0" y="2" width="16" height="22" rx="1" fill="#5C7A3E"/>
      <rect x="4" y="0" width="8" height="4" fill="#5C7A3E"/>
      <rect x="2" y="8" width="12" height="5" fill="#F2EDE0"/>
    </g>
    <path d="M 98 52 Q 108 48 114 52 Q 112 58 102 58 Q 96 56 98 52 Z" fill="#E8B547"/>
  </g>

  <!-- Lily gazing up at the table -->
  <g transform="translate(30 130)">
    <path d="M 72 9 Q 82 -5 84 -17 Q 84 -23 80 -23" fill="none" stroke="#D9622C" stroke-width="6" stroke-linecap="round"/>
    <path d="M 52 33 Q 62 63 74 75 L 86 80 L 58 80 Q 44 70 42 47 Z" fill="#A84919"/>
    <path d="M 22 -11 Q 18 7 26 33 Q 32 47 50 51 L 78 51 Q 92 47 88 27 Q 84 7 74 -5 Q 58 -15 40 -17 Q 26 -17 22 -11 Z" fill="#D9622C"/>
    <path d="M 28 33 Q 34 47 50 51 L 74 51 Q 78 43 74 33 Q 60 37 42 35 Q 32 34 28 33 Z" fill="#A84919"/>
    <rect x="44" y="43" width="7" height="38" rx="2" fill="#D9622C"/>
    <rect x="58" y="43" width="7" height="38" rx="2" fill="#A84919"/>
    <ellipse cx="47" cy="80" rx="5.5" ry="2.5" fill="#3A3F45"/>
    <ellipse cx="61" cy="80" rx="5.5" ry="2.5" fill="#3A3F45"/>
    <path d="M 22 -11 Q 18 -27 26 -41 Q 38 -49 48 -43 L 52 -13 Q 36 -9 22 -11 Z" fill="#D9622C"/>
    <path d="M 32 -21 Q 40 -17 48 -19 Q 46 -13 38 -13 Q 32 -15 32 -21 Z" fill="#A84919" opacity="0.4"/>
    <path d="M 28 -37 Q 26 -55 38 -65 Q 52 -71 68 -67 Q 80 -63 86 -57 Q 88 -53 84 -50 Q 88 -49 94 -47 Q 104 -45 110 -41 Q 114 -39 114 -36 Q 114 -33 110 -32 Q 102 -31 94 -31 Q 82 -31 72 -33 L 52 -33 Q 38 -33 32 -35 Q 28 -35 28 -37 Z" fill="#D9622C"/>
    <path d="M 84 -50 Q 88 -49 94 -47 Q 104 -45 110 -41 Q 114 -39 114 -36 Q 114 -33 110 -32 Q 102 -31 94 -31 Q 82 -31 72 -33 Q 68 -39 72 -47 Q 78 -50 84 -50 Z" fill="#A84919" opacity="0.35"/>
    <path d="M 46 -57 Q 56 -61 66 -60" fill="none" stroke="#8A3A14" stroke-width="0.6" opacity="0.5" stroke-linecap="round"/>
    <ellipse cx="111" cy="-39" rx="3" ry="2.2" fill="#3A3F45"/>
    <path d="M 40 -53 Q 28 -49 24 -37 Q 22 -19 26 -5 Q 32 1 38 -2 Q 44 -7 46 -17 Q 48 -33 46 -45 Q 44 -53 40 -53 Z" fill="#A84919"/>
    <ellipse cx="58" cy="-50" rx="2.3" ry="1.7" fill="#3A3F45"/>
    <circle cx="59" cy="-51" r="0.5" fill="#F2EDE0" opacity="0.7"/>
    <circle cx="88" cy="-37" r="0.4" fill="#6B2E10" opacity="0.4"/>
    <circle cx="92" cy="-35" r="0.4" fill="#6B2E10" opacity="0.4"/>
    <circle cx="95" cy="-37" r="0.4" fill="#6B2E10" opacity="0.4"/>
    <ellipse cx="114" cy="-28" rx="1" ry="2" fill="#4A90B8" opacity="0.6"/>
    <rect x="26" y="-21" width="22" height="5" rx="1" fill="#5C7A3E"/>
    <circle cx="37" cy="-14" r="2" fill="#E8B547"/>
  </g>
</svg>
